<?xml version="1.0" encoding="utf-8"?>
<!-- Generator: Adobe Illustrator 27.5.0, SVG Export Plug-In . SVG Version: 6.00 Build 0)  -->
<svg version="1.1" xmlns="http://www.w3.org/2000/svg" xmlns:xlink="http://www.w3.org/1999/xlink" x="0px" y="0px"
	 viewBox="0 0 500 500" style="enable-background:new 0 0 500 500;" xml:space="preserve">
<g id="BACKGROUND">
	<rect style="fill:#FFFFFF;" width="500" height="500"/>
</g>
<g id="OBJECTS">
	<g>
		<g>
			<g>
				<text transform="matrix(1 8.000000e-05 -8.000000e-05 1 159.9831 346.3828)"><tspan x="0" y="0" style="fill:#01446A; font-family:'Roboto-BlackItalic'; font-size:41.2767px;">POWER</tspan><tspan x="138.059" y="0" style="fill:#73C7EB; font-family:'Roboto-MediumItalic'; font-size:41.2767px;">CLEAN</tspan></text>
			</g>
			
				<text transform="matrix(1 8.000000e-05 -8.000000e-05 1 159.9809 371.7696)" style="fill:#73C7EB; font-family:'Roboto-MediumItalic'; font-size:18px;">Tagline goes here</text>
		</g>
		<g>
			<polygon style="fill:#01446A;" points="203.227,167.875 235.659,131.525 229.696,124.842 191.3,167.875 			"/>
			<polygon style="fill:#01446A;" points="400.46,212.422 320.978,123.34 231.036,123.34 310.518,212.422 			"/>
			<polygon style="fill:#01446A;" points="163.945,171.378 102.253,240.521 116.898,240.521 171.268,179.585 			"/>
			<polygon style="fill:#01446A;" points="241.705,169.875 304.737,240.521 228.318,240.521 165.285,169.875 			"/>
			<path style="fill:#01446A;" d="M172.063,230.461v14.458l10.836-2.328v-14.458L172.063,230.461z M156.769,248.204l11.293-2.426
				V231.32l-11.293,2.426V248.204z M172.063,261.637l10.836-2.328v-12.627l-10.836,2.327V261.637z M156.769,264.922l11.293-2.426
				V249.87l-11.293,2.426V264.922z"/>
		</g>
		<g>
			<path style="fill:#73C7EB;" d="M437.221,223.488c-1.475-16.452-18.968-11.066-18.968-11.066s6.387-4.224,3.677-12.159
				c-2.71-7.936-13.601-3.484-13.601-3.484c8.464-7.548,10.311-27.29-11.56-33.097c-15.647-4.154-23.763,5.421-27.116,11.209
				l35.271,39.531h-14.66v22.924c0.442-0.119,0.898-0.203,1.378-0.203c2.94,0,5.324,2.384,5.324,5.324
				c0,1.14-0.365,2.191-0.975,3.057l28.777-4.329c0.186-0.028,0.369-0.042,0.551-0.042c1.224,0,2.31,0.602,2.983,1.539
				C433.619,239.495,438.141,233.751,437.221,223.488z M396.847,232.993c-1.287,0-2.331-1.044-2.331-2.331
				c0-1.287,1.044-2.331,2.331-2.331c1.287,0,2.331,1.044,2.331,2.331C399.178,231.949,398.134,232.993,396.847,232.993z
				 M406.743,226.076c-0.906,0-1.64-0.734-1.64-1.64c0-0.906,0.734-1.64,1.64-1.64c0.906,0,1.64,0.734,1.64,1.64
				C408.383,225.342,407.649,226.076,406.743,226.076z M431.593,233.089c0.706-1.37,1.112-2.921,1.112-4.569c0-5.523-4.477-10-10-10
				c-2.974,0-5.637,1.306-7.469,3.367c1.66-3.223,5.013-5.431,8.888-5.431c5.523,0,10,4.477,10,10
				C434.124,229.005,433.163,231.323,431.593,233.089z"/>
			<path style="fill:#73C7EB;" d="M106.559,280.977c0-2.142,1.331-3.964,3.208-4.708c-0.168-0.396-0.261-0.831-0.261-1.288
				c0-1.822,1.477-3.299,3.299-3.299c0.8,0,1.523,0.296,2.094,0.769V242.52h-17.11l60.608-67.928
				c-3.07-6.471-10.93-11.187-21.635-8.892c-14.022,3.006-14.83,19.465-14.83,19.465c-8.496-1.545-9.672,5.564-9.677,5.597
				c-2.161-4.738-9.026-8.576-12.071-9.467c-33.864-9.918-48.792,39.908-16.187,48.58c-0.001,0-7.385-1.21-10.064,7.936
				c-2.051,7.002,5.806,12.059,5.806,12.059c-13.355,0.833-22.064,13.877-13.936,30.328c5.666,11.467,19.318,12.213,27.074,11.613
				c1.986-3.578,5.534-6.246,9.846-6.895l4.993-0.751C107.003,283.292,106.559,282.192,106.559,280.977z M85.06,280.392
				c-1.657,0-3-1.343-3-3c0-1.657,1.343-3,3-3c1.657,0,3,1.343,3,3C88.06,279.048,86.716,280.392,85.06,280.392z M80.174,195.025
				c2.165-5.482,7.579-9.376,13.934-9.376c8.258,0,14.952,6.564,14.952,14.661c0,2.587-0.689,5.014-1.889,7.124
				c0.648-1.642,1.018-3.419,1.018-5.286c0-8.097-6.694-14.661-14.952-14.661C87.618,187.488,82.729,190.532,80.174,195.025z
				 M95.124,263.257c-2.512,0-4.548-2.036-4.548-4.548s2.036-4.548,4.548-4.548c2.512,0,4.548,2.036,4.548,4.548
				S97.636,263.257,95.124,263.257z M104.519,268.206c-1.127,0-2.04-0.913-2.04-2.04s0.913-2.04,2.04-2.04
				c1.127,0,2.04,0.913,2.04,2.04S105.645,268.206,104.519,268.206z"/>
			<path style="fill:#73C7EB;" d="M111.382,139.875c-6.788,0-12.29,5.503-12.29,12.29c0,6.788,5.502,12.29,12.29,12.29
				c6.788,0,12.29-5.503,12.29-12.29C123.673,145.378,118.17,139.875,111.382,139.875z M118.87,157.691
				c0.811-1.347,1.286-2.919,1.286-4.605c0-4.944-4.008-8.952-8.952-8.952c-2.651,0-5.026,1.16-6.665,2.991
				c1.566-2.601,4.408-4.346,7.665-4.346c4.944,0,8.952,4.008,8.952,8.952C121.156,154.023,120.287,156.107,118.87,157.691z"/>
			<path style="fill:#73C7EB;" d="M143.898,132.956c0,2.592-2.101,4.693-4.693,4.693c-2.592,0-4.694-2.101-4.694-4.693
				s2.101-4.694,4.694-4.694C141.797,128.262,143.898,130.364,143.898,132.956z"/>
			<path style="fill:#73C7EB;" d="M375.431,127.585c-6.547,0-11.855,5.308-11.855,11.855c0,6.547,5.308,11.855,11.855,11.855
				c6.547,0,11.855-5.308,11.855-11.855C387.285,132.893,381.978,127.585,375.431,127.585z M381.919,145.415
				c1.206-1.57,1.893-3.552,1.814-5.685c-0.179-4.86-4.264-8.656-9.124-8.477c-2.1,0.077-3.999,0.886-5.466,2.169
				c1.543-2.008,3.934-3.339,6.662-3.44c4.86-0.179,8.946,3.616,9.124,8.477C385.031,141.22,383.848,143.728,381.919,145.415z"/>
			<circle style="fill:#73C7EB;" cx="413.987" cy="146.077" r="5.041"/>
		</g>
		<path style="fill:#01446A;" d="M428.371,252.876l-1.389-8.312c-0.152-0.909-1.005-1.529-1.917-1.392l-35.363,5.32
			c-0.933,0.14-1.57,1.018-1.414,1.948l0.282,1.69l-119.258,17.939l-0.179-1.074c-0.203-1.214-1.342-2.042-2.56-1.858
			l-72.946,10.973c-0.234,0.035-0.448,0.115-0.65,0.213c-2.515-2.616-6.21-4.027-10.08-3.444l-79.878,12.015
			c-6.25,0.94-10.595,6.713-9.769,12.979c0.382,2.903,1.812,5.402,3.85,7.189l-24.137,49.524l51.226,18.323l2.71-6.71l-3.471-1.37
			c-5.053-8.365-6.012-15.066-2.981-27.92c2.668-11.313,22.978-29.676,29.925-35.69l35.974-5.411
			c4.551-0.685,8.081-3.937,9.351-8.071l72.749-10.943c1.246-0.187,2.096-1.359,1.889-2.602l-0.176-1.053l119.258-17.939l0.26,1.554
			c0.152,0.909,1.005,1.529,1.917,1.392l35.363-5.319C427.89,254.684,428.527,253.807,428.371,252.876z M117.866,329.746
			c-6.452,11.484-7.226,22.71-7.226,26.065c0,2.229-1.705,3.94-2.852,4.841l-10.954-4.325c0,0-6.581-4.516-2.581-14.581
			c3.712-9.34,19.647-27.12,33.988-35.2l10.266-1.544C132.438,309.854,123.794,319.194,117.866,329.746z"/>
	</g>
</g>
</svg>
